<svg version="1.2" xmlns="http://www.w3.org/2000/svg" viewBox="0 0 1500 500" width="1500" height="500">
	<defs>
		<linearGradient id="g1" x2="1" gradientUnits="userSpaceOnUse" gradientTransform="matrix(-295.809,295.809,-169.994,-169.994,412.521,95.712)">
			<stop offset="0" stop-color="#0078ff"/>
			<stop offset="1" stop-color="#000267"/>
		</linearGradient>
		<linearGradient id="g2" x2="1" gradientUnits="userSpaceOnUse" gradientTransform="matrix(295.809,295.809,-169.994,169.994,116.712,95.712)">
			<stop offset="0" stop-color="#00aaff"/>
			<stop offset="1" stop-color="#0076ff"/>
		</linearGradient>
		<linearGradient id="g3" x2="1" gradientUnits="userSpaceOnUse" gradientTransform="matrix(149.312,149.312,-169.995,169.995,116.712,95.712)">
			<stop offset="0" stop-color="#d2ffff" stop-opacity="1"/>
			<stop offset="1" stop-color="#d2ffff" stop-opacity="0"/>
		</linearGradient>
	</defs>
	<style>
		.s0 { fill: #ffffff } 
		.s1 { fill: #000540 } 
		.s2 { fill: url(#g1) } 
		.s3 { fill: url(#g2) } 
		.s4 { fill: url(#g3) } 
		.s5 { fill: #0073ff } 
		.s6 { fill: #0078ff } 
		.s7 { fill: #000000 } 
	</style>
	<path id="Shape 1" fill-rule="evenodd" class="s0" d="m1500 0v500h-1500v-500z"/>
	<path class="s1" d="m179.62 170.84c81.68-81.68 185.96-109.85 232.9-62.9 46.94 46.94 18.78 151.21-62.91 232.9-81.68 81.68-185.96 109.85-232.9 62.9-46.94-46.94-18.78-151.21 62.91-232.9z"/>
	<path class="s1" d="m179.62 340.84c-81.69-81.69-109.85-185.96-62.91-232.9 46.94-46.95 151.22-18.78 232.9 62.9 81.69 81.69 109.85 185.96 62.91 232.9-46.94 46.95-151.22 18.78-232.9-62.9z"/>
	<path class="s2" d="m179.62 158.62c81.68-81.69 185.96-109.85 232.9-62.91 46.94 46.94 18.78 151.22-62.91 232.9-81.68 81.69-185.96 109.85-232.9 62.91-46.94-46.94-18.78-151.22 62.91-232.9z"/>
	<path class="s3" d="m116.71 95.71c46.94-46.94 151.22-18.78 232.9 62.91 81.69 81.68 109.85 185.96 62.91 232.9-46.94 46.94-151.22 18.78-232.9-62.91-81.69-81.68-109.85-185.96-62.91-232.9z"/>
	<path class="s4" d="m179.62 328.61c-81.69-81.68-109.85-185.96-62.91-232.9 46.94-46.94 151.22-18.78 232.9 62.91 1.65 1.65-167.9 172.08-169.99 169.99z"/>
	<path class="s5" d="m178.17 318.42l86.45-157.76 86.44 157.76-86.44-47.73z"/>
	<path class="s0" d="m178.17 310.27l86.45-157.76 86.44 157.76-86.44-47.73z"/>
	<path id="QuikClik Cardinal" class="s6" aria-label="QuikClik
Cardinal"  d="m623.3 221.6l-2.3 12.1q-24.6-3-42.7-7.7-17.9-4.9-30.1-11.9-12.3-7.1-19.7-16.7-7.2-9.7-10.5-22.2-3.1-12.7-3.1-28.6 0-24.2 6.9-39.3 6.9-15.2 19.3-22.2 12.5-7.1 29.1-7.1 16.5 0 28.9 7 12.5 7 19.4 22.1 7 15 7 39.2 0 21.8-6 36.8-5.9 14.9-17.7 22.7-11.8 7.7-29.3 7.7-2.6 0-5.3-0.1-2.7-0.2-5.6-0.6l3.1-4q8.5 3.6 18.2 6.2 9.9 2.4 20.2 4 10.3 1.6 20.2 2.6zm-53.1-19.4q12.1 0 21.1-5.3 9.1-5.4 14.1-17.5 5-12.2 5-32.6 0-20.8-5-33.2-5-12.3-14.1-17.6-9-5.5-21.1-5.5-12.1 0-21.2 5.4-9 5.3-14.1 17.5-4.9 12.1-4.9 32.5 0 20.9 4.9 33.2 5 12.3 14.1 17.8 9 5.3 21.2 5.3zm48.4 19.4l-2.4 12.1q-24.6-3-42.6-7.7-17.9-4.9-30.2-11.9-12.2-7.1-19.6-16.7-7.3-9.7-10.6-22.2-3.1-12.7-3.1-28.6 0-24.2 6.9-39.3 7-15.2 19.4-22.2 12.5-7.1 29-7.1 16.6 0 29 7 12.5 7 19.4 22.1 7 15 7 39.2 0 21.8-6 36.8-6 14.9-17.8 22.7-11.8 7.7-29.3 7.7-2.6 0-5.3-0.1-2.7-0.2-5.5-0.6l3-4q8.5 3.6 18.3 6.2 9.9 2.4 20.2 4 10.3 1.6 20.2 2.6zm-53.2-19.4q12.2 0 21.2-5.3 9.1-5.4 14-17.5 5-12.2 5-32.6 0-20.8-5-33.2-5-12.3-14-17.6-9-5.5-21.2-5.5-12.1 0-21.2 5.4-9 5.3-14 17.5-5 12.1-5 32.5 0 20.9 5 33.2 5 12.3 14 17.8 9.1 5.3 21.2 5.3zm117.8 12.4q-9.1 0-16.2-3.2-7-3.4-11.1-10.9-4-7.7-4-20.4v-64.8h14.4v64.2q0 12.5 5.6 17.5 5.6 4.8 14.4 4.8 4.4 0 9.2-1.2 4.9-1.4 9.4-4.3 4.5-2.9 8-7.5v-73.5h14.4v97.7h-12.1l-1.1-10.7h-0.9q-6 6.1-13.8 9.3-7.8 3-16.2 3zm-4.8 0q-9.1 0-16.1-3.2-7.1-3.4-11.1-10.9-4-7.7-4-20.4v-64.8h14.4v64.2q0 12.5 5.5 17.5 5.6 4.8 14.5 4.8 4.3 0 9.1-1.2 4.9-1.4 9.4-4.3 4.5-2.9 8-7.5v-73.5h14.4v97.7h-12.1l-1-10.7h-0.9q-6.1 6.1-13.9 9.3-7.7 3-16.2 3zm96-1.6h-14.4v-97.7h14.4zm-7.2-119q-4.8 0-7.5-2.4-2.5-2.5-2.5-6.6 0-4.3 2.5-6.7 2.7-2.5 7.5-2.5 4.9 0 7.4 2.5 2.6 2.4 2.6 6.7 0 4.1-2.6 6.6-2.5 2.4-7.4 2.4zm2.5 119h-14.5v-97.8h14.5zm-7.2-119q-4.9 0-7.5-2.3-2.6-2.5-2.6-6.7 0-4.3 2.6-6.7 2.6-2.4 7.5-2.4 4.8 0 7.3 2.4 2.7 2.4 2.7 6.7 0 4.2-2.7 6.7-2.5 2.3-7.3 2.3zm125.4 119h-16.3l-39.3-50 36.6-47.7h16l-37.5 49.5v-4.1zm-49.4-44h-19.9v-12h19.9zm-18.1 44h-14.4v-145.6h14.4zm62.7 0h-16.3l-39.2-50 36.5-47.7h16l-37.5 49.5v-4.1zm-49.4-44h-19.9v-12.1h19.9zm-18 44.1h-14.5v-145.6h14.5zm145.5 1.7q-13.8 0-25-3.6-11-3.7-19-11.7-7.9-8.1-12.1-21-4.2-13.1-4.2-31.8 0-24.1 7.3-39.2 7.4-15.2 21.2-22.2 13.9-7.2 33.3-7.2 7.7 0 14.7 1 7.1 0.9 14 2.9v12.7q-7-2.1-14-2.9-6.9-1-14.2-1-15.1 0-25.7 5.4-10.4 5.3-15.9 17.5-5.4 12.2-5.4 32.6 0 21.2 5.5 33.4 5.6 12.1 15.8 17.3 10.4 5.1 24.7 5.1 7.4 0 14.3-1.1 7-1.2 14.9-3.9v12.8q-6.6 2.3-14.3 3.6-7.5 1.3-15.9 1.3zm-4.7 0q-13.8 0-25-3.6-11.1-3.7-19-11.7-7.9-8.1-12.2-21-4.2-13.1-4.2-31.8 0-24.1 7.4-39.2 7.4-15.2 21.1-22.2 14-7.2 33.3-7.2 7.7 0 14.8 1 7.1 0.9 14 2.9v12.7q-7.1-2.1-14-2.9-6.9-1-14.2-1-15.2 0-25.8 5.4-10.4 5.3-15.8 17.5-5.4 12.2-5.4 32.6 0 21.2 5.5 33.4 5.5 12.1 15.7 17.3 10.4 5.1 24.8 5.1 7.4 0 14.3-1.1 7-1.2 14.9-3.9v12.8q-6.7 2.3-14.3 3.6-7.6 1.3-15.9 1.3zm72.9-1.7h-14.4v-145.6h14.4zm-4.7 0h-14.5v-145.5h14.5zm50.7 0h-14.4v-97.8h14.4zm-7.2-119q-4.8 0-7.5-2.3-2.5-2.5-2.5-6.7 0-4.3 2.5-6.7 2.7-2.4 7.5-2.4 4.9 0 7.4 2.4 2.7 2.4 2.7 6.7 0 4.2-2.7 6.7-2.5 2.3-7.4 2.3zm2.5 119h-14.5v-97.7h14.5zm-7.2-119q-4.9 0-7.5-2.4-2.6-2.4-2.6-6.6 0-4.3 2.6-6.7 2.6-2.5 7.5-2.5 4.8 0 7.4 2.5 2.6 2.4 2.6 6.7 0 4.2-2.6 6.6-2.6 2.4-7.4 2.4zm126.4 119h-16.3l-39.3-50.1 36.6-47.7h16l-37.5 49.5v-4zm-49.4-44h-19.9v-12.1h19.9zm-18.1 44h-14.4v-145.5h14.4zm62.7 0h-16.3l-39.2-50.1 36.5-47.7h16l-37.5 49.5v-4zm-49.4-44h-19.9v-12.1h19.9zm-18 44h-14.4v-145.5h14.4z"/>
	<path id="QuikClik Cardinal" class="s7" aria-label="QuikClik
Cardinal"  d="m572.8 431.7q-13.8 0-24.9-3.6-11.1-3.7-19-11.7-7.9-8.1-12.2-21-4.2-13.1-4.2-31.8 0-24.1 7.3-39.2 7.5-15.2 21.2-22.2 13.9-7.2 33.3-7.2 7.7 0 14.7 1.1 7.1 0.8 14 2.8v12.7q-7-2.1-14-2.9-6.9-1-14.2-1-15.1 0-25.7 5.4-10.4 5.3-15.8 17.5-5.5 12.2-5.5 32.6 0 21.2 5.6 33.4 5.5 12.1 15.7 17.3 10.4 5.1 24.8 5.1 7.3 0 14.2-1.1 7.1-1.2 14.9-3.8v12.7q-6.6 2.3-14.2 3.7-7.6 1.2-16 1.2zm70.1-0.1q-13.8 0-21.8-7.1-7.9-7.1-7.9-19.5 0-12.8 8.5-19.9 8.5-7.3 27-9l26.3-2.9 1.3 9.6-26.6 2.9q-11.6 1.2-16.8 5.7-5.1 4.3-5.1 12.2 0 8.2 4.7 12.6 4.7 4.3 14 4.3 6.5 0 12.9-2.8 6.5-2.7 11.7-9.2v-43.2q0-8.9-2.9-13.8-2.8-5-8.4-7-5.6-2-14-2-5.5 0-12.5 1.1-6.9 0.9-13.9 3.3v-11.8q6.3-2.1 13.9-3.2 7.7-1.1 14.4-1.1 12.4 0 20.7 3.3 8.4 3.2 12.5 10.9 4.3 7.7 4.3 21v64h-12.1l-1-10.9h-1q-4.7 6.1-12.2 9.3-7.4 3.2-16 3.2zm83.1-1.6h-14.4v-97.7h12.1l1.1 13h1q5-6.9 12.6-10.4 7.7-3.6 15.9-3.6 2.2 0 4.1 0.2 1.9 0.1 3.6 0.5v13.4q-2-0.4-4.1-0.4-2-0.2-4.3-0.2-4.8 0-10 1.5-5.1 1.5-9.7 4.6-4.7 3.1-7.9 7.7zm81.9 1.7q-10.6 0-19.4-4.7-8.7-4.9-13.9-15.5-5.1-10.7-5.1-28.3 0-17.7 5.6-29.3 5.6-11.6 16.5-17.4 11.1-5.7 27.2-5.7 4.1 0 8.2 0.4 4.2 0.3 7.7 0.9v-47.6h14.4v145.5h-12.3l-1-10.5h-0.9q-4.4 5.3-11.3 8.8-6.8 3.4-15.7 3.4zm3.3-12.4q6.6 0 12.9-2.9 6.3-2.9 10.6-9.2v-62.9q-3.3-0.8-7.7-1.3-4.2-0.4-8.4-0.4-17.1 0-25.8 9.2-8.6 9.1-8.6 30.1 0 14.5 3.4 22.6 3.4 8.2 9.5 11.6 6.2 3.2 14.1 3.2zm78.9 10.7h-14.5v-97.7h14.5zm-7.3-119q-4.8 0-7.4-2.3-2.6-2.5-2.6-6.7 0-4.3 2.6-6.7 2.6-2.5 7.4-2.5 4.9 0 7.4 2.5 2.7 2.4 2.7 6.7 0 4.2-2.7 6.7-2.5 2.3-7.4 2.3zm49.2 119h-14.4v-97.8h12.1l1.1 11.1h0.9q6-6.1 13.9-9.2 7.9-3.3 16.8-3.3 9.2 0 16.3 3.4 7.1 3.3 11.1 10.9 4 7.6 4 20.3v64.6h-14.4v-64q0-12.5-5.5-17.4-5.5-5-14.9-5-4.4 0-9.3 1.3-4.8 1.2-9.5 4.1-4.6 2.9-8.2 7.6zm111.9 1.6q-13.8 0-21.8-7.1-7.9-7.1-7.9-19.5 0-12.8 8.5-19.9 8.5-7.2 27-9l26.3-2.8 1.3 9.6-26.6 2.8q-11.6 1.2-16.8 5.7-5.1 4.4-5.1 12.3 0 8.2 4.7 12.6 4.7 4.2 14 4.2 6.5 0 12.9-2.7 6.5-2.8 11.7-9.3v-43.2q0-8.9-2.9-13.8-2.8-5-8.4-6.9-5.6-2-14-2-5.5 0-12.5 1.1-6.9 0.9-13.9 3.2v-11.8q6.3-2.1 13.9-3.2 7.7-1.1 14.4-1.1 12.4 0 20.7 3.3 8.4 3.2 12.5 10.9 4.3 7.7 4.3 21v64h-12.1l-1-10.9h-1q-4.7 6.1-12.2 9.3-7.4 3.2-16 3.2zm83.1-1.6h-14.4v-145.5h14.4z"/>
</svg>
